<?xml version="1.0" standalone="no"?>
<!DOCTYPE svg PUBLIC "-//W3C//DTD SVG 20010904//EN"
 "http://www.w3.org/TR/2001/REC-SVG-20010904/DTD/svg10.dtd">
<svg version="1.0" xmlns="http://www.w3.org/2000/svg"
 width="487.000000pt" height="487.000000pt" viewBox="0 0 487.000000 487.000000"
 preserveAspectRatio="xMidYMid meet">
<metadata>
Created by potrace 1.11, written by Peter Selinger 2001-2013
</metadata>
<g transform="translate(0.000000,487.000000) scale(0.100000,-0.100000)"
fill="#000000" stroke="none">
<path d="M2126 4854 c-417 -54 -817 -217 -1162 -474 -127 -95 -379 -347 -474
-474 -325 -436 -490 -931 -490 -1471 0 -540 165 -1035 490 -1471 95 -127 347
-379 474 -474 436 -325 931 -490 1471 -490 540 0 1035 165 1471 490 127 95
379 347 474 474 325 436 490 931 490 1471 0 540 -165 1035 -490 1471 -95 127
-347 379 -474 474 -351 262 -748 422 -1176 475 -153 19 -453 18 -604 -1z m614
-231 c877 -117 1615 -775 1834 -1633 50 -199 68 -345 68 -555 0 -419 -106
-799 -320 -1150 -296 -487 -785 -849 -1332 -989 -199 -50 -345 -68 -555 -68
-210 0 -356 18 -555 68 -770 196 -1388 814 -1584 1584 -50 198 -68 344 -68
555 0 491 149 940 442 1331 481 639 1267 965 2070 857z"/>
<path d="M3044 3770 c-116 -24 -310 -123 -454 -230 -203 -152 -370 -388 -463
-656 -70 -203 -98 -377 -101 -628 l-1 -161 -101 -50 c-105 -52 -344 -139 -368
-133 -10 2 2 39 44 138 66 156 80 207 80 287 -1 98 -53 177 -148 220 -54 25
-275 24 -397 -1 -49 -10 -93 -21 -97 -25 -4 -3 5 -55 20 -114 l27 -109 35 6
c19 3 71 13 115 21 85 15 163 19 189 9 26 -10 18 -53 -30 -169 -107 -253 -123
-329 -84 -404 60 -118 191 -131 445 -46 77 25 178 64 224 86 85 40 100 40 101
0 0 -32 74 -230 116 -312 119 -231 276 -363 479 -403 75 -15 86 -15 170 3 172
36 297 112 458 281 93 98 207 242 222 283 6 14 -56 62 -171 130 -7 4 -37 -28
-75 -81 -84 -116 -218 -253 -298 -307 -89 -59 -180 -89 -249 -82 -139 14 -262
132 -354 342 -31 70 -77 223 -84 280 l-5 40 73 49 c324 222 706 658 877 1004
109 218 146 349 139 485 -6 116 -46 185 -133 229 -44 23 -138 32 -201 18z
m103 -294 c-15 -165 -142 -416 -345 -686 -92 -123 -373 -411 -479 -493 l-63
-48 0 39 c0 65 20 242 36 322 55 267 188 521 351 671 138 126 376 256 472 258
l34 1 -6 -64z"/>
<path d="M3500 2043 c-25 -36 -53 -78 -63 -93 l-17 -27 93 -62 c51 -33 96 -61
100 -61 6 0 127 175 127 184 0 7 -177 126 -187 126 -4 0 -28 -30 -53 -67z"/>
</g>
</svg>
