<?xml version="1.0" encoding="UTF-8"?>
<svg width="182px" height="189px" viewBox="0 0 182 189" version="1.1" xmlns="http://www.w3.org/2000/svg" xmlns:xlink="http://www.w3.org/1999/xlink">
    <!-- Generator: Sketch 59 (86127) - https://sketch.com -->
    <title>undraw_Memory_storage_reh0 Copy</title>
    <desc>Created with Sketch.</desc>
    <g id="Page-1" stroke="none" stroke-width="1" fill="none" fill-rule="evenodd">
        <g id="aplikace-1" transform="translate(-89.000000, -99.000000)">
            <g id="undraw_Memory_storage_reh0-Copy" transform="translate(90.000000, 100.000000)">
                <ellipse id="Oval" fill="#3F3D56" fill-rule="nonzero" cx="90.9024008" cy="175.919395" rx="66.6498741" ry="11.7884131"></ellipse>
                <path d="M35.3570214,64.8827909 C35.3570214,47.7088617 60.5394816,33.7866416 91.6036209,33.7866416 C122.66776,33.7866416 147.85022,47.7088617 147.85022,64.8827909" id="Path" stroke="#3F3D56"></path>
                <path d="M109.289326,45.7596136 L63.5297101,45.7596136 C54.4791181,30.5064091 54.4791181,15.2532045 63.5297101,0 L109.289326,0 C96.6344841,15.2532045 96.6344841,30.5064091 109.289326,45.7596136 Z" id="Path" stroke="#979797" fill="#FFFFFF" fill-rule="nonzero"></path>
                <rect id="Rectangle" fill="#FFCC00" fill-rule="nonzero" x="70.0668" y="5.44757305" width="25.7851791" height="3.26854383"></rect>
                <rect id="Rectangle" fill="#878787" fill-rule="nonzero" x="61.7138547" y="16.1611345" width="34.1381244" height="1.08951461"></rect>
                <rect id="Rectangle" fill="#878787" fill-rule="nonzero" x="61.7138547" y="21.7902922" width="34.1381244" height="1.08951461"></rect>
                <rect id="Rectangle" fill="#878787" fill-rule="nonzero" x="61.7138547" y="27.4194521" width="34.1381244" height="1.08951461"></rect>
                <path d="M127.558922,147.051268 C127.558922,161.56374 136.663286,173.307049 147.914528,173.307049" id="Path" fill="#3F3D56" fill-rule="nonzero"></path>
                <path d="M147.914528,173.307049 C147.914528,158.631515 158.07447,146.75626 170.630204,146.75626" id="Path" fill="#FFCC00" fill-rule="nonzero"></path>
                <path d="M134.934144,148.366848 C134.934144,162.152154 140.739824,173.307049 147.914528,173.307049" id="Path" fill="#FFCC00" fill-rule="nonzero"></path>
                <path d="M147.914528,173.307049 C147.914528,154.554978 159.657828,139.381041 174.17031,139.381041" id="Path" fill="#3F3D56" fill-rule="nonzero"></path>
                <path d="M143.632233,173.492157 C143.632233,173.492157 146.518993,173.403247 147.38899,172.783734 C148.258986,172.164221 151.829553,171.424487 152.045379,172.418051 C152.261204,173.411615 156.383644,177.359581 153.124506,177.38587 C149.865368,177.412158 145.55172,176.878208 144.683397,176.34928 C143.815074,175.820352 143.632233,173.492157 143.632233,173.492157 Z" id="Path" fill="#A8A8A8" fill-rule="nonzero"></path>
                <path d="M153.182668,177.040007 C149.92353,177.066304 145.609885,176.53235 144.741561,176.003417 C144.080277,175.60061 143.816776,174.155237 143.728606,173.488405 C143.667546,173.49103 143.632236,173.492161 143.632236,173.492161 C143.632236,173.492161 143.815076,175.820352 144.683399,176.349285 C145.551722,176.878217 149.865368,177.412169 153.124506,177.385872 C154.065292,177.378284 154.390253,177.043568 154.372412,176.547822 C154.241714,176.847332 153.882907,177.034362 153.182668,177.040007 Z" id="Path" fill="#000000" fill-rule="nonzero" opacity="0.2"></path>
                <path d="M81.1200831,35.7464743 C81.3850957,35.8679856 81.7038771,35.6868521 81.860103,35.4407101 C82.4549781,34.5034338 81.359737,33.2948698 81.5968904,32.2103788 C81.7868879,31.3415411 82.7741698,30.8258592 82.9760327,29.9596987 C83.1721738,29.1180831 82.5677909,28.1694469 82.9762935,27.4079176 C83.296333,26.8113083 84.0957597,26.6543093 84.7646728,26.7588272 C85.4335859,26.8633451 86.0684962,27.157398 86.7442693,27.1985985 C87.6447521,27.2535008 88.5031277,26.8570972 89.3836428,26.6606909 C90.2641579,26.4642846 91.3381753,26.5411836 91.8561673,27.2798093 C92.5212763,28.2282144 91.8465937,29.5488363 92.0781816,30.6838292 C92.2620786,31.5850897 93.0165756,32.3313574 93.0327869,33.2510463 C93.0385474,33.57793 92.1792196,33.3145972 92.2248952,33.6383252 C92.2705708,33.9620531 91.8644169,33.6770116 92.1890766,33.6385519 C92.4611245,33.5719174 92.6587504,33.3368579 92.6776723,33.0574081 C92.7162748,32.787773 93.2229884,32.6978932 93.2171418,32.4255695 C93.2034423,31.7873539 94.3573058,32.2176741 94.5473305,31.6082494 C94.9843376,30.187561 94.8946723,28.6569625 94.2947705,27.2970181 C94.0359922,26.7164388 93.6835753,26.1669718 93.558727,25.5437048 C93.3892186,24.6974849 93.6559338,23.7890562 93.3763579,22.9725635 C92.9995821,21.8722239 91.7528599,21.311304 90.5953942,21.1973781 C89.4379285,21.0834521 88.2617033,21.2873781 87.1108413,21.1193932 C86.0798652,20.9689005 85.0817652,20.5220811 84.0418776,20.5868199 C82.7941081,20.664501 81.7083023,21.4684572 80.8433637,22.3711481 C79.9784252,23.273839 79.2447053,24.3120673 78.2623814,25.0853826 C77.9616404,25.2923285 77.6841684,25.5312002 77.4348076,25.797829 C76.9344801,26.4075393 76.8837355,27.2761073 77.0229181,28.0524446 C77.1621008,28.8287819 77.4649542,29.5693209 77.592829,30.347601 C77.7130005,31.079004 77.6759282,31.8262443 77.7276884,32.5656363 C77.7794486,33.3050282 77.9329224,34.0668453 78.3782411,34.6593537 C78.7395491,35.149822 79.3068867,35.4462214 79.9158469,35.4626592 C80.1240529,35.4674584 80.2999043,35.2803741 80.5100463,35.3291577 C80.7727262,35.3901355 80.8869401,35.6395806 81.1200831,35.7464743 Z" id="Path" fill="#2F2E41" fill-rule="nonzero"></path>
                <polygon id="Path" fill="#A0616A" fill-rule="nonzero" points="72.2144584 89.4801763 72.9861461 94.220932 74.5297481 92.125995 73.6476574 88.9288413"></polygon>
                <path d="M73.2067209,53.6487529 L71.9914851,56.8512091 C71.9914851,56.8512091 70.7812141,73.1630562 70.7812141,74.3758186 C70.7812141,75.5885811 71.6632164,91.1338594 71.9939675,91.7953617 C71.9939675,91.7953617 73.4272209,89.700606 75.3014766,90.0313572 C77.1757322,90.3621083 76.4039788,84.5188436 76.4039788,84.5188436 L78.1679834,70.0760562 L77.8372277,62.799538 L73.2067209,53.6487529 Z" id="Path" fill="#575A89" fill-rule="nonzero"></path>
                <path d="M73.2067209,53.6487529 L71.9914851,56.8512091 C71.9914851,56.8512091 70.7812141,73.1630562 70.7812141,74.3758186 C70.7812141,75.5885811 71.6632164,91.1338594 71.9939675,91.7953617 C71.9939675,91.7953617 73.4272209,89.700606 75.3014766,90.0313572 C77.1757322,90.3621083 76.4039788,84.5188436 76.4039788,84.5188436 L78.1679834,70.0760562 L77.8372277,62.799538 L73.2067209,53.6487529 Z" id="Path" fill="#000000" fill-rule="nonzero" opacity="0.1"></path>
                <path d="M80.703739,36.0087098 C80.703739,36.0087098 84.3419992,45.2697325 82.2472436,47.033737 C80.1524879,48.7977416 93.933773,44.0569791 93.933773,44.0569791 L93.6030174,42.8442257 C93.6030174,42.8442257 89.0827572,41.0802212 91.2877617,36.0087098 C93.4927662,30.9371985 80.703739,36.0087098 80.703739,36.0087098 Z" id="Path" fill="#EEC68F" fill-rule="nonzero"></path>
                <path d="M80.703739,36.0087098 C80.703739,36.0087098 84.3419992,45.2697325 82.2472436,47.033737 C80.1524879,48.7977416 93.933773,44.0569791 93.933773,44.0569791 L93.6030174,42.8442257 C93.6030174,42.8442257 89.0827572,41.0802212 91.2877617,36.0087098 C93.4927662,30.9371985 80.703739,36.0087098 80.703739,36.0087098 Z" id="Path" fill="#D6CCAB" fill-rule="nonzero" opacity="0.1"></path>
                <path d="M74.9707254,159.709525 C74.9707254,159.709525 73.4272209,159.268523 72.5452186,160.371036 C71.6632164,161.47355 68.3557096,164.229796 68.3557096,164.229796 C68.3557096,164.229796 61.9611914,163.568285 61.0791892,166.765552 C60.1971869,169.962819 71.1119652,169.962812 73.757972,169.191059 C76.4039788,168.419306 76.95523,169.191059 76.95523,169.191059 C76.95523,169.191059 85.1137504,169.85257 85.1137504,168.529548 C85.1137504,167.206525 84.3419992,162.686283 84.3419992,162.686283 L74.9707254,159.709525 Z" id="Path" fill="#575A89" fill-rule="nonzero"></path>
                <path d="M100.87954,167.096292 L99.4462844,171.506292 C99.4462844,171.506292 95.1465174,177.459824 97.5720332,178.672573 C99.9975491,179.885321 108.59706,181.098079 108.59706,177.900819 L108.59706,171.837054 C108.59706,171.837054 107.715058,167.537294 106.833056,167.096299 C105.951054,166.655303 100.87954,167.096292 100.87954,167.096292 Z" id="Path" fill="#575A89" fill-rule="nonzero"></path>
                <path d="M76.5320577,87.8668844 C76.5320577,87.8668844 71.8837186,91.9056015 71.993972,92.4568526 C72.1042254,93.0081038 74.3092232,128.398443 74.3092232,128.398443 L75.5219834,151.330502 C75.5219834,151.330502 73.9784788,156.732769 74.7502322,157.94552 C75.5219856,159.158272 73.6477277,159.489023 73.6477277,159.489023 C73.6477277,159.489023 81.5857481,166.655292 84.8932572,163.568283 L87.9802662,123.547432 L96.4695401,152.653507 C96.4695401,152.653507 97.9027935,168.088545 99.5565469,168.088545 C101.2103,168.088545 107.93557,168.419301 107.825318,167.537294 C107.715067,166.655287 108.156074,159.930025 107.384316,155.961014 C106.612558,151.992002 101.430803,120.570674 101.430803,120.570674 C101.430803,120.570674 100.985321,93.6337239 102.145189,91.1159093 C103.305058,88.5980947 101.541051,85.9520856 101.541051,85.9520856 L93.8235332,82.9753277 L84.5625083,84.0778322 L76.5320577,87.8668844 Z" id="Path" fill="#2F2E41" fill-rule="nonzero"></path>
                <circle id="Oval" fill="#F6D69D" fill-rule="nonzero" cx="85.8855038" cy="32.0396985" r="7.7175204"></circle>
                <path d="M104.628051,48.6874904 C103.853708,46.4964719 102.031724,44.8401271 99.7770378,44.2774904 C97.5531676,43.7180895 95.377898,42.9807101 93.272273,42.0724859 C93.272273,42.0724859 85.4445015,45.820995 83.9009992,45.820995 C82.357497,45.820995 82.3574947,44.8287416 82.3574947,44.8287416 C82.3574947,44.8287416 78.3884834,49.0182529 76.2937277,49.4592552 C74.198972,49.9002574 71.1119652,55.0820176 72.2144675,57.9485267 C72.9632869,59.7862638 74.0474883,61.46864 75.4117254,62.9097733 C75.4117254,62.9097733 74.9707254,78.3448118 76.4039788,81.2113186 C76.4039788,81.2113186 72.8759698,87.9365856 76.1834788,88.3775879 C79.4909879,88.8185902 92.1697685,87.2750856 94.3747753,88.8185879 C96.5797821,90.3620902 100.65904,88.4878322 101.210291,90.5825924 C101.761542,92.6773526 102.974296,93.1183504 102.974296,93.1183504 C102.974296,93.1183504 104.848551,90.1415924 103.746049,88.3775947 C102.643547,86.613597 104.628051,48.6874904 104.628051,48.6874904 Z" id="Path" fill="#575A89" fill-rule="nonzero"></path>
                <path d="M96.4695401,90.141597 L94.7055355,91.2440992 C94.7055355,91.2440992 96.5797889,97.7488662 97.3515423,97.9693662 C98.1232957,98.1898662 99.9398675,92.4074025 99.9398675,92.4074025 L96.4695401,90.141597 Z" id="Path" fill="#A0616A" fill-rule="nonzero"></path>
                <path d="M79.7970809,34.9747232 C80.0620935,35.0962345 80.3808725,34.915101 80.5370985,34.6689567 C81.1319758,33.7316826 80.0367325,32.5231164 80.2738995,31.4386254 C80.4638947,30.5697877 81.4511788,30.0541081 81.6530395,29.1879453 C81.8491829,28.346332 81.2448,27.3976935 81.6533025,26.6361665 C81.9733421,26.0395572 82.7727688,25.8825559 83.4416819,25.9870738 C84.110595,26.0915917 84.745503,26.3856446 85.4212783,26.4268474 C86.3217589,26.4817474 87.1801345,26.0853438 88.0606496,25.8889398 C88.9411647,25.6925358 90.0151844,25.7694302 90.5331763,26.5080582 C91.1982854,27.456461 90.5236005,28.7770829 90.7551884,29.9120758 C90.9390854,30.8133385 93.0343194,31.4459297 93.2243418,30.8364982 C93.66135,29.4158107 93.5716847,27.8852126 92.9717819,26.5252693 C92.7130058,25.9446899 92.360598,25.3952229 92.2357406,24.7719559 C92.0662322,23.925736 92.3329451,23.0173073 92.0533715,22.2008146 C91.6765957,21.1004751 90.4298713,20.5395552 89.2724078,20.4256292 C88.1149443,20.3117033 86.9387146,20.5156292 85.7878549,20.3476443 C84.7568788,20.1971494 83.7587788,19.7503322 82.7188889,19.815071 C81.4711194,19.8927521 80.3853159,20.6967083 79.5203751,21.599397 C78.6554343,22.5020856 77.9217166,23.5403184 76.9393927,24.3136315 C76.6386517,24.5205782 76.3611797,24.7594506 76.1118189,25.0260801 C75.6114914,25.6357904 75.5607446,26.5043584 75.6999295,27.2806957 C75.8391144,28.057033 76.1419655,28.797572 76.269838,29.5758521 C76.3900118,30.3072529 76.3529373,31.0544932 76.4046975,31.7938874 C76.4564577,32.5332816 76.6099338,33.2950965 77.0552524,33.8876025 C77.4165602,34.3780715 77.9838977,34.6744717 78.5928582,34.6909103 C78.801062,34.6957096 78.9769134,34.5086229 79.1870554,34.5574088 C79.4497239,34.6183844 79.5639378,34.8678295 79.7970809,34.9747232 Z" id="Path" fill="#2F2E41" fill-rule="nonzero"></path>
                <path d="M100.273164,50.6168705 L103.856298,48.6874904 C103.856298,48.6874904 112.566072,69.4145448 110.471316,75.1475584 C108.37656,80.880572 100.328293,92.6773526 100.328293,92.6773526 C100.328293,92.6773526 93.9337776,91.3543504 94.5952708,90.0313458 C95.256764,88.7083413 99.5565332,80.2190788 99.8872844,79.1165675 C100.218036,78.0140562 102.42304,70.8477982 101.430789,70.0760448 C100.438538,69.3042914 98.5091622,51.3886239 98.5091622,51.3886239 L100.273164,50.6168705 Z" id="Path" fill="#000000" fill-rule="nonzero" opacity="0.1"></path>
                <path d="M100.21804,47.474737 L104.62804,48.6874904 C104.62804,48.6874904 113.337812,69.4145448 111.243056,75.1475584 C109.1483,80.880572 101.100033,92.6773526 101.100033,92.6773526 C101.100033,92.6773526 94.7055174,91.3543504 95.3670106,90.0313458 C96.0285038,88.7083413 100.328273,80.2190788 100.659024,79.1165675 C100.989775,78.0140562 103.194782,70.8477982 102.202529,70.0760448 C101.210275,69.3042914 96.469506,50.230995 96.469506,50.230995 L100.21804,47.474737 Z" id="Path" fill="#575A89" fill-rule="nonzero"></path>
                <path d="M147.850211,64.8827909 C147.850211,82.8884584 122.667753,97.4849237 91.6036118,97.4849237 C60.5394703,97.4849237 35.3570123,82.8884516 35.3570123,64.8827909" id="Path" stroke="#3F3D56"></path>
                <path d="M137.619159,97.9476416 C125.046574,104.728434 108.64172,108.831747 90.6964141,108.831747 C73.4905972,108.831747 57.7008929,105.05965 45.3472957,98.7721753" id="Path" stroke="#3F3D56"></path>
                <path d="M119.692714,25.3690549 C143.619613,31.6579466 160.66017,45.4913252 162.244748,61.7839753" id="Path" stroke="#3F3D56"></path>
                <path d="M22.4803292,51.1941174 C26.5118781,43.7843018 33.8768048,37.2633665 43.5263713,32.2536401" id="Path" stroke="#3F3D56"></path>
                <path d="M71.9450909,130.512881 L117.704705,130.512881 C126.75529,115.259677 126.75529,100.006472 117.704705,84.7532675 L71.9450909,84.7532675 C84.5999327,100.006472 84.5999327,115.259677 71.9450909,130.512881 Z" id="Path" stroke="#979797" fill="#FFFFFF" fill-rule="nonzero"></path>
                <rect id="Rectangle" fill="#FFCC00" fill-rule="nonzero" x="87.0859768" y="93.4693844" width="25.7851791" height="3.26854383"></rect>
                <rect id="Rectangle" fill="#878787" fill-rule="nonzero" x="85.0885322" y="103.275016" width="34.1381244" height="1.08951461"></rect>
                <rect id="Rectangle" fill="#878787" fill-rule="nonzero" x="85.0885322" y="108.904174" width="34.1381244" height="1.08951461"></rect>
                <path d="M52.5475519,99.4533098 L6.78793829,99.4533098 C-2.26264761,84.2001053 -2.26264761,68.9469008 6.78793829,53.6936962 L52.5475519,53.6936962 C39.8927131,68.9469008 39.8927131,84.2001053 52.5475519,99.4533098 Z" id="Path" stroke="#979797" fill="#FFFFFF" fill-rule="nonzero"></path>
                <rect id="Rectangle" fill="#FFCC00" fill-rule="nonzero" x="11.8723421" y="59.1412693" width="25.7851791" height="3.26854383"></rect>
                <rect id="Rectangle" fill="#878787" fill-rule="nonzero" x="6.24318212" y="68.2205577" width="34.1381244" height="1.08951461"></rect>
                <rect id="Rectangle" fill="#878787" fill-rule="nonzero" x="6.24318212" y="73.8497176" width="34.1381244" height="1.08951461"></rect>
                <rect id="Rectangle" fill="#878787" fill-rule="nonzero" x="6.24318212" y="79.4788753" width="34.1381244" height="1.08951461"></rect>
                <rect id="Rectangle" fill="#878787" fill-rule="nonzero" x="6.24318212" y="85.1080353" width="34.1381244" height="1.08951461"></rect>
                <path d="M127.357171,78.3748474 L173.116784,78.3748474 C182.16737,63.1216428 182.16737,47.8684383 173.116784,32.6152338 L127.357171,32.6152338 C140.012009,47.8684383 140.012009,63.1216428 127.357171,78.3748474 Z" id="Path" stroke="#979797" fill="#FFFFFF" fill-rule="nonzero"></path>
                <rect id="Rectangle" fill="#FFCC00" fill-rule="nonzero" x="141.953298" y="37.1548791" width="25.7851791" height="3.26854383"></rect>
                <rect id="Rectangle" fill="#878787" fill-rule="nonzero" x="139.22951" y="46.2341675" width="34.1381244" height="1.08951461"></rect>
            </g>
        </g>
    </g>
</svg>